<?xml version="1.0" encoding="UTF-8" standalone="no"?>
<!DOCTYPE svg PUBLIC "-//W3C//DTD SVG 1.1//EN" "http://www.w3.org/Graphics/SVG/1.1/DTD/svg11.dtd">
<svg width="100%" height="100%" viewBox="0 0 560 566" version="1.1" xmlns="http://www.w3.org/2000/svg" xmlns:xlink="http://www.w3.org/1999/xlink" xml:space="preserve" xmlns:serif="http://www.serif.com/" style="fill-rule:evenodd;clip-rule:evenodd;stroke-linejoin:round;stroke-miterlimit:2;">
    <path d="M478.79,83.17L478.79,256.98C415.23,273.35 348.59,282.04 279.92,282.04C211.25,282.04 144.61,273.33 81.05,256.98L81.05,83.17C144.61,99.52 211.25,108.23 279.92,108.23C348.59,108.23 415.23,99.54 478.79,83.17Z" style="fill:rgb(131,127,122);fill-rule:nonzero;"/>
    <g transform="matrix(1,0,0,1,0,27)">
        <path d="M81.05,484.89L81.05,311.08C144.61,294.71 211.25,286.02 279.92,286.02C348.59,286.02 415.23,294.73 478.79,311.08L478.79,484.89C415.23,468.54 348.59,459.83 279.92,459.83C211.25,459.83 144.61,468.52 81.05,484.89Z" style="fill:rgb(131,127,122);fill-rule:nonzero;"/>
    </g>
</svg>
